<svg xmlns="http://www.w3.org/2000/svg" version="1.1" xmlns:xlink="http://www.w3.org/1999/xlink" xmlns:svgjs="http://svgjs.com/svgjs" width="1440" height="800" preserveAspectRatio="none" viewBox="0 0 1440 800">
    <g mask="url(&quot;#SvgjsMask1004&quot;)" fill="none">
        <path d="M116.63 322.64L181.59 360.14L181.59 435.14L116.63 472.64L51.68 435.14L51.68 360.14zM116.63 547.64L181.59 585.14L181.59 660.14L116.63 697.64L51.68 660.14L51.68 585.14zM51.68 660.14L116.63 697.64L116.63 772.64L51.68 810.14L-13.27 772.64L-13.27 697.64zM116.63 772.64L181.59 810.14L181.59 885.14L116.63 922.64L51.68 885.14L51.68 810.14zM246.54 97.64L311.5 135.14L311.5 210.14L246.54 247.64L181.59 210.14L181.59 135.14zM246.54 322.64L311.5 360.14L311.5 435.14L246.54 472.64L181.59 435.14L181.59 360.14zM376.45 97.64L441.4 135.14L441.4 210.14L376.45 247.64L311.5 210.14L311.5 135.14zM376.45 772.64L441.4 810.14L441.4 885.14L376.45 922.64L311.5 885.14L311.5 810.14zM441.4 -14.86L506.36 22.64L506.36 97.64L441.4 135.14L376.45 97.64L376.45 22.64zM506.36 547.64L571.31 585.14L571.31 660.14L506.36 697.64L441.4 660.14L441.4 585.14zM571.31 435.14L636.26 472.64L636.26 547.64L571.31 585.14L506.36 547.64L506.36 472.64zM766.17 322.64L831.13 360.14L831.13 435.14L766.17 472.64L701.22 435.14L701.22 360.14zM701.22 435.14L766.17 472.64L766.17 547.64L701.22 585.14L636.26 547.64L636.26 472.64zM896.08 97.64L961.03 135.14L961.03 210.14L896.08 247.64L831.12 210.14L831.12 135.14zM896.08 322.64L961.03 360.14L961.03 435.14L896.08 472.64L831.12 435.14L831.12 360.14zM831.12 660.14L896.08 697.64L896.08 772.64L831.12 810.14L766.17 772.64L766.17 697.64zM961.03 210.14L1025.99 247.64L1025.99 322.64L961.03 360.14L896.08 322.64L896.08 247.64zM961.03 660.14L1025.99 697.64L1025.99 772.64L961.03 810.14L896.08 772.64L896.08 697.64zM1155.89 97.64L1220.85 135.14L1220.85 210.14L1155.89 247.64L1090.94 210.14L1090.94 135.14zM1090.94 660.14L1155.89 697.64L1155.89 772.64L1090.94 810.14L1025.99 772.64L1025.99 697.64zM1220.85 660.14L1285.8 697.64L1285.8 772.64L1220.85 810.14L1155.89 772.64L1155.89 697.64zM1350.76 -14.86L1415.71 22.64L1415.71 97.64L1350.76 135.14L1285.8 97.64L1285.8 22.64zM1350.76 435.14L1415.71 472.64L1415.71 547.64L1350.76 585.14L1285.8 547.64L1285.8 472.64zM1415.71 547.64L1480.66 585.14L1480.66 660.14L1415.71 697.64L1350.76 660.14L1350.76 585.14zM1350.76 660.14L1415.71 697.64L1415.71 772.64L1350.76 810.14L1285.8 772.64L1285.8 697.64zM1480.66 -14.86L1545.62 22.64L1545.62 97.64L1480.66 135.14L1415.71 97.64L1415.71 22.64zM1545.62 322.64L1610.57 360.14L1610.57 435.14L1545.62 472.64L1480.66 435.14L1480.66 360.14zM1545.62 772.64L1610.57 810.14L1610.57 885.14L1545.62 922.64L1480.66 885.14L1480.66 810.14z" stroke="#03305d" stroke-width="2" data-darkreader-inline-stroke="" style="--darkreader-inline-stroke:#cac5be;"></path>
        <path d="M109.13 322.64 a7.5 7.5 0 1 0 15 0 a7.5 7.5 0 1 0 -15 0zM174.09 360.14 a7.5 7.5 0 1 0 15 0 a7.5 7.5 0 1 0 -15 0zM174.09 435.14 a7.5 7.5 0 1 0 15 0 a7.5 7.5 0 1 0 -15 0zM109.13 472.64 a7.5 7.5 0 1 0 15 0 a7.5 7.5 0 1 0 -15 0zM44.18 435.14 a7.5 7.5 0 1 0 15 0 a7.5 7.5 0 1 0 -15 0zM44.18 360.14 a7.5 7.5 0 1 0 15 0 a7.5 7.5 0 1 0 -15 0zM109.13 547.64 a7.5 7.5 0 1 0 15 0 a7.5 7.5 0 1 0 -15 0zM174.09 585.14 a7.5 7.5 0 1 0 15 0 a7.5 7.5 0 1 0 -15 0zM174.09 660.14 a7.5 7.5 0 1 0 15 0 a7.5 7.5 0 1 0 -15 0zM109.13 697.64 a7.5 7.5 0 1 0 15 0 a7.5 7.5 0 1 0 -15 0zM44.18 660.14 a7.5 7.5 0 1 0 15 0 a7.5 7.5 0 1 0 -15 0zM44.18 585.14 a7.5 7.5 0 1 0 15 0 a7.5 7.5 0 1 0 -15 0zM109.13 772.64 a7.5 7.5 0 1 0 15 0 a7.5 7.5 0 1 0 -15 0zM44.18 810.14 a7.5 7.5 0 1 0 15 0 a7.5 7.5 0 1 0 -15 0zM-20.77 772.64 a7.5 7.5 0 1 0 15 0 a7.5 7.5 0 1 0 -15 0zM-20.77 697.64 a7.5 7.5 0 1 0 15 0 a7.5 7.5 0 1 0 -15 0zM174.09 810.14 a7.5 7.5 0 1 0 15 0 a7.5 7.5 0 1 0 -15 0zM174.09 885.14 a7.5 7.5 0 1 0 15 0 a7.5 7.5 0 1 0 -15 0zM109.13 922.64 a7.5 7.5 0 1 0 15 0 a7.5 7.5 0 1 0 -15 0zM44.18 885.14 a7.5 7.5 0 1 0 15 0 a7.5 7.5 0 1 0 -15 0zM239.04 97.64 a7.5 7.5 0 1 0 15 0 a7.5 7.5 0 1 0 -15 0zM304 135.14 a7.5 7.5 0 1 0 15 0 a7.5 7.5 0 1 0 -15 0zM304 210.14 a7.5 7.5 0 1 0 15 0 a7.5 7.5 0 1 0 -15 0zM239.04 247.64 a7.5 7.5 0 1 0 15 0 a7.5 7.5 0 1 0 -15 0zM174.09 210.14 a7.5 7.5 0 1 0 15 0 a7.5 7.5 0 1 0 -15 0zM174.09 135.14 a7.5 7.5 0 1 0 15 0 a7.5 7.5 0 1 0 -15 0zM239.04 322.64 a7.5 7.5 0 1 0 15 0 a7.5 7.5 0 1 0 -15 0zM304 360.14 a7.5 7.5 0 1 0 15 0 a7.5 7.5 0 1 0 -15 0zM304 435.14 a7.5 7.5 0 1 0 15 0 a7.5 7.5 0 1 0 -15 0zM239.04 472.64 a7.5 7.5 0 1 0 15 0 a7.5 7.5 0 1 0 -15 0zM368.95 97.64 a7.5 7.5 0 1 0 15 0 a7.5 7.5 0 1 0 -15 0zM433.9 135.14 a7.5 7.5 0 1 0 15 0 a7.5 7.5 0 1 0 -15 0zM433.9 210.14 a7.5 7.5 0 1 0 15 0 a7.5 7.5 0 1 0 -15 0zM368.95 247.64 a7.5 7.5 0 1 0 15 0 a7.5 7.5 0 1 0 -15 0zM368.95 772.64 a7.5 7.5 0 1 0 15 0 a7.5 7.5 0 1 0 -15 0zM433.9 810.14 a7.5 7.5 0 1 0 15 0 a7.5 7.5 0 1 0 -15 0zM433.9 885.14 a7.5 7.5 0 1 0 15 0 a7.5 7.5 0 1 0 -15 0zM368.95 922.64 a7.5 7.5 0 1 0 15 0 a7.5 7.5 0 1 0 -15 0zM304 885.14 a7.5 7.5 0 1 0 15 0 a7.5 7.5 0 1 0 -15 0zM304 810.14 a7.5 7.5 0 1 0 15 0 a7.5 7.5 0 1 0 -15 0zM433.9 -14.86 a7.5 7.5 0 1 0 15 0 a7.5 7.5 0 1 0 -15 0zM498.86 22.64 a7.5 7.5 0 1 0 15 0 a7.5 7.5 0 1 0 -15 0zM498.86 97.64 a7.5 7.5 0 1 0 15 0 a7.5 7.5 0 1 0 -15 0zM368.95 22.64 a7.5 7.5 0 1 0 15 0 a7.5 7.5 0 1 0 -15 0zM498.86 547.64 a7.5 7.5 0 1 0 15 0 a7.5 7.5 0 1 0 -15 0zM563.81 585.14 a7.5 7.5 0 1 0 15 0 a7.5 7.5 0 1 0 -15 0zM563.81 660.14 a7.5 7.5 0 1 0 15 0 a7.5 7.5 0 1 0 -15 0zM498.86 697.64 a7.5 7.5 0 1 0 15 0 a7.5 7.5 0 1 0 -15 0zM433.9 660.14 a7.5 7.5 0 1 0 15 0 a7.5 7.5 0 1 0 -15 0zM433.9 585.14 a7.5 7.5 0 1 0 15 0 a7.5 7.5 0 1 0 -15 0zM563.81 435.14 a7.5 7.5 0 1 0 15 0 a7.5 7.5 0 1 0 -15 0zM628.76 472.64 a7.5 7.5 0 1 0 15 0 a7.5 7.5 0 1 0 -15 0zM628.76 547.64 a7.5 7.5 0 1 0 15 0 a7.5 7.5 0 1 0 -15 0zM498.86 472.64 a7.5 7.5 0 1 0 15 0 a7.5 7.5 0 1 0 -15 0zM758.67 322.64 a7.5 7.5 0 1 0 15 0 a7.5 7.5 0 1 0 -15 0zM823.63 360.14 a7.5 7.5 0 1 0 15 0 a7.5 7.5 0 1 0 -15 0zM823.63 435.14 a7.5 7.5 0 1 0 15 0 a7.5 7.5 0 1 0 -15 0zM758.67 472.64 a7.5 7.5 0 1 0 15 0 a7.5 7.5 0 1 0 -15 0zM693.72 435.14 a7.5 7.5 0 1 0 15 0 a7.5 7.5 0 1 0 -15 0zM693.72 360.14 a7.5 7.5 0 1 0 15 0 a7.5 7.5 0 1 0 -15 0zM758.67 547.64 a7.5 7.5 0 1 0 15 0 a7.5 7.5 0 1 0 -15 0zM693.72 585.14 a7.5 7.5 0 1 0 15 0 a7.5 7.5 0 1 0 -15 0zM888.58 97.64 a7.5 7.5 0 1 0 15 0 a7.5 7.5 0 1 0 -15 0zM953.53 135.14 a7.5 7.5 0 1 0 15 0 a7.5 7.5 0 1 0 -15 0zM953.53 210.14 a7.5 7.5 0 1 0 15 0 a7.5 7.5 0 1 0 -15 0zM888.58 247.64 a7.5 7.5 0 1 0 15 0 a7.5 7.5 0 1 0 -15 0zM823.62 210.14 a7.5 7.5 0 1 0 15 0 a7.5 7.5 0 1 0 -15 0zM823.62 135.14 a7.5 7.5 0 1 0 15 0 a7.5 7.5 0 1 0 -15 0zM888.58 322.64 a7.5 7.5 0 1 0 15 0 a7.5 7.5 0 1 0 -15 0zM953.53 360.14 a7.5 7.5 0 1 0 15 0 a7.5 7.5 0 1 0 -15 0zM953.53 435.14 a7.5 7.5 0 1 0 15 0 a7.5 7.5 0 1 0 -15 0zM888.58 472.64 a7.5 7.5 0 1 0 15 0 a7.5 7.5 0 1 0 -15 0zM823.62 435.14 a7.5 7.5 0 1 0 15 0 a7.5 7.5 0 1 0 -15 0zM823.62 360.14 a7.5 7.5 0 1 0 15 0 a7.5 7.5 0 1 0 -15 0zM823.62 660.14 a7.5 7.5 0 1 0 15 0 a7.5 7.5 0 1 0 -15 0zM888.58 697.64 a7.5 7.5 0 1 0 15 0 a7.5 7.5 0 1 0 -15 0zM888.58 772.64 a7.5 7.5 0 1 0 15 0 a7.5 7.5 0 1 0 -15 0zM823.62 810.14 a7.5 7.5 0 1 0 15 0 a7.5 7.5 0 1 0 -15 0zM758.67 772.64 a7.5 7.5 0 1 0 15 0 a7.5 7.5 0 1 0 -15 0zM758.67 697.64 a7.5 7.5 0 1 0 15 0 a7.5 7.5 0 1 0 -15 0zM1018.49 247.64 a7.5 7.5 0 1 0 15 0 a7.5 7.5 0 1 0 -15 0zM1018.49 322.64 a7.5 7.5 0 1 0 15 0 a7.5 7.5 0 1 0 -15 0zM953.53 660.14 a7.5 7.5 0 1 0 15 0 a7.5 7.5 0 1 0 -15 0zM1018.49 697.64 a7.5 7.5 0 1 0 15 0 a7.5 7.5 0 1 0 -15 0zM1018.49 772.64 a7.5 7.5 0 1 0 15 0 a7.5 7.5 0 1 0 -15 0zM953.53 810.14 a7.5 7.5 0 1 0 15 0 a7.5 7.5 0 1 0 -15 0zM1148.39 97.64 a7.5 7.5 0 1 0 15 0 a7.5 7.5 0 1 0 -15 0zM1213.35 135.14 a7.5 7.5 0 1 0 15 0 a7.5 7.5 0 1 0 -15 0zM1213.35 210.14 a7.5 7.5 0 1 0 15 0 a7.5 7.5 0 1 0 -15 0zM1148.39 247.64 a7.5 7.5 0 1 0 15 0 a7.5 7.5 0 1 0 -15 0zM1083.44 210.14 a7.5 7.5 0 1 0 15 0 a7.5 7.5 0 1 0 -15 0zM1083.44 135.14 a7.5 7.5 0 1 0 15 0 a7.5 7.5 0 1 0 -15 0zM1083.44 660.14 a7.5 7.5 0 1 0 15 0 a7.5 7.5 0 1 0 -15 0zM1148.39 697.64 a7.5 7.5 0 1 0 15 0 a7.5 7.5 0 1 0 -15 0zM1148.39 772.64 a7.5 7.5 0 1 0 15 0 a7.5 7.5 0 1 0 -15 0zM1083.44 810.14 a7.5 7.5 0 1 0 15 0 a7.5 7.5 0 1 0 -15 0zM1213.35 660.14 a7.5 7.5 0 1 0 15 0 a7.5 7.5 0 1 0 -15 0zM1278.3 697.64 a7.5 7.5 0 1 0 15 0 a7.5 7.5 0 1 0 -15 0zM1278.3 772.64 a7.5 7.5 0 1 0 15 0 a7.5 7.5 0 1 0 -15 0zM1213.35 810.14 a7.5 7.5 0 1 0 15 0 a7.5 7.5 0 1 0 -15 0zM1343.26 -14.86 a7.5 7.5 0 1 0 15 0 a7.5 7.5 0 1 0 -15 0zM1408.21 22.64 a7.5 7.5 0 1 0 15 0 a7.5 7.5 0 1 0 -15 0zM1408.21 97.64 a7.5 7.5 0 1 0 15 0 a7.5 7.5 0 1 0 -15 0zM1343.26 135.14 a7.5 7.5 0 1 0 15 0 a7.5 7.5 0 1 0 -15 0zM1278.3 97.64 a7.5 7.5 0 1 0 15 0 a7.5 7.5 0 1 0 -15 0zM1278.3 22.64 a7.5 7.5 0 1 0 15 0 a7.5 7.5 0 1 0 -15 0zM1343.26 435.14 a7.5 7.5 0 1 0 15 0 a7.5 7.5 0 1 0 -15 0zM1408.21 472.64 a7.5 7.5 0 1 0 15 0 a7.5 7.5 0 1 0 -15 0zM1408.21 547.64 a7.5 7.5 0 1 0 15 0 a7.5 7.5 0 1 0 -15 0zM1343.26 585.14 a7.5 7.5 0 1 0 15 0 a7.5 7.5 0 1 0 -15 0zM1278.3 547.64 a7.5 7.5 0 1 0 15 0 a7.5 7.5 0 1 0 -15 0zM1278.3 472.64 a7.5 7.5 0 1 0 15 0 a7.5 7.5 0 1 0 -15 0zM1473.16 585.14 a7.5 7.5 0 1 0 15 0 a7.5 7.5 0 1 0 -15 0zM1473.16 660.14 a7.5 7.5 0 1 0 15 0 a7.5 7.5 0 1 0 -15 0zM1408.21 697.64 a7.5 7.5 0 1 0 15 0 a7.5 7.5 0 1 0 -15 0zM1343.26 660.14 a7.5 7.5 0 1 0 15 0 a7.5 7.5 0 1 0 -15 0zM1408.21 772.64 a7.5 7.5 0 1 0 15 0 a7.5 7.5 0 1 0 -15 0zM1343.26 810.14 a7.5 7.5 0 1 0 15 0 a7.5 7.5 0 1 0 -15 0zM1473.16 -14.86 a7.5 7.5 0 1 0 15 0 a7.5 7.5 0 1 0 -15 0zM1538.12 22.64 a7.5 7.5 0 1 0 15 0 a7.5 7.5 0 1 0 -15 0zM1538.12 97.64 a7.5 7.5 0 1 0 15 0 a7.5 7.5 0 1 0 -15 0zM1473.16 135.14 a7.5 7.5 0 1 0 15 0 a7.5 7.5 0 1 0 -15 0zM1538.12 322.64 a7.5 7.5 0 1 0 15 0 a7.5 7.5 0 1 0 -15 0zM1603.07 360.14 a7.5 7.5 0 1 0 15 0 a7.5 7.5 0 1 0 -15 0zM1603.07 435.14 a7.5 7.5 0 1 0 15 0 a7.5 7.5 0 1 0 -15 0zM1538.12 472.64 a7.5 7.5 0 1 0 15 0 a7.5 7.5 0 1 0 -15 0zM1473.16 435.14 a7.5 7.5 0 1 0 15 0 a7.5 7.5 0 1 0 -15 0zM1473.16 360.14 a7.5 7.5 0 1 0 15 0 a7.5 7.5 0 1 0 -15 0zM1538.12 772.64 a7.5 7.5 0 1 0 15 0 a7.5 7.5 0 1 0 -15 0zM1603.07 810.14 a7.5 7.5 0 1 0 15 0 a7.5 7.5 0 1 0 -15 0zM1603.07 885.14 a7.5 7.5 0 1 0 15 0 a7.5 7.5 0 1 0 -15 0zM1538.12 922.64 a7.5 7.5 0 1 0 15 0 a7.5 7.5 0 1 0 -15 0zM1473.16 885.14 a7.5 7.5 0 1 0 15 0 a7.5 7.5 0 1 0 -15 0zM1473.16 810.14 a7.5 7.5 0 1 0 15 0 a7.5 7.5 0 1 0 -15 0z" fill="#03305d" data-darkreader-inline-fill="" style="--darkreader-inline-fill:#02264a;"></path>
        <path d="M78.51 207.98L121.81 232.98L121.81 282.98L78.51 307.98L35.21 282.98L35.21 232.98zM35.21 282.98L78.51 307.98L78.51 357.98L35.21 382.98L-8.09 357.98L-8.09 307.98zM35.21 732.98L78.51 757.98L78.51 807.98L35.21 832.98L-8.09 807.98L-8.09 757.98zM165.12 657.98L208.42 682.98L208.42 732.98L165.12 757.98L121.81 732.98L121.81 682.98zM121.81 732.98L165.12 757.98L165.12 807.98L121.81 832.98L78.51 807.98L78.51 757.98zM165.12 807.98L208.42 832.98L208.42 882.98L165.12 907.98L121.81 882.98L121.81 832.98zM208.42 282.98L251.72 307.98L251.72 357.98L208.42 382.98L165.12 357.98L165.12 307.98zM295.02 132.98L338.33 157.98L338.33 207.98L295.02 232.98L251.72 207.98L251.72 157.98zM381.63 -17.02L424.93 7.98L424.93 57.98L381.63 82.98L338.33 57.98L338.33 7.98zM468.24 282.98L511.54 307.98L511.54 357.98L468.24 382.98L424.93 357.98L424.93 307.98zM511.54 357.98L554.84 382.98L554.84 432.98L511.54 457.98L468.24 432.98L468.24 382.98zM511.54 657.98L554.84 682.98L554.84 732.98L511.54 757.98L468.24 732.98L468.24 682.98zM511.54 807.98L554.84 832.98L554.84 882.98L511.54 907.98L468.24 882.98L468.24 832.98zM554.84 -17.02L598.14 7.98L598.14 57.98L554.84 82.98L511.54 57.98L511.54 7.98zM598.14 57.98L641.45 82.98L641.45 132.98L598.14 157.98L554.84 132.98L554.84 82.98zM598.14 207.98L641.45 232.98L641.45 282.98L598.14 307.98L554.84 282.98L554.84 232.98zM598.14 507.98L641.45 532.98L641.45 582.98L598.14 607.98L554.84 582.98L554.84 532.98zM684.75 57.98L728.05 82.98L728.05 132.98L684.75 157.98L641.45 132.98L641.45 82.98zM641.45 132.98L684.75 157.98L684.75 207.98L641.45 232.98L598.14 207.98L598.14 157.98zM684.75 357.98L728.05 382.98L728.05 432.98L684.75 457.98L641.45 432.98L641.45 382.98zM641.45 432.98L684.75 457.98L684.75 507.98L641.45 532.98L598.14 507.98L598.14 457.98zM814.66 132.98L857.96 157.98L857.96 207.98L814.66 232.98L771.35 207.98L771.35 157.98zM857.96 207.98L901.26 232.98L901.26 282.98L857.96 307.98L814.66 282.98L814.66 232.98zM814.66 432.98L857.96 457.98L857.96 507.98L814.66 532.98L771.35 507.98L771.35 457.98zM901.26 -17.02L944.56 7.98L944.56 57.98L901.26 82.98L857.96 57.98L857.96 7.98zM944.56 357.98L987.87 382.98L987.87 432.98L944.56 457.98L901.26 432.98L901.26 382.98zM944.56 507.98L987.87 532.98L987.87 582.98L944.56 607.98L901.26 582.98L901.26 532.98zM1031.17 57.98L1074.47 82.98L1074.47 132.98L1031.17 157.98L987.87 132.98L987.87 82.98zM1031.17 807.98L1074.47 832.98L1074.47 882.98L1031.17 907.98L987.87 882.98L987.87 832.98zM1074.47 432.98L1117.77 457.98L1117.77 507.98L1074.47 532.98L1031.17 507.98L1031.17 457.98zM1074.47 582.98L1117.77 607.98L1117.77 657.98L1074.47 682.98L1031.17 657.98L1031.17 607.98zM1204.38 207.98L1247.68 232.98L1247.68 282.98L1204.38 307.98L1161.08 282.98L1161.08 232.98zM1204.38 657.98L1247.68 682.98L1247.68 732.98L1204.38 757.98L1161.08 732.98L1161.08 682.98zM1161.08 732.98L1204.38 757.98L1204.38 807.98L1161.08 832.98L1117.77 807.98L1117.77 757.98zM1247.68 -17.02L1290.98 7.98L1290.98 57.98L1247.68 82.98L1204.38 57.98L1204.38 7.98zM1247.68 432.98L1290.98 457.98L1290.98 507.98L1247.68 532.98L1204.38 507.98L1204.38 457.98zM1290.98 807.98L1334.29 832.98L1334.29 882.98L1290.98 907.98L1247.68 882.98L1247.68 832.98zM1334.29 -17.02L1377.59 7.98L1377.59 57.98L1334.29 82.98L1290.98 57.98L1290.98 7.98zM1377.59 507.98L1420.89 532.98L1420.89 582.98L1377.59 607.98L1334.29 582.98L1334.29 532.98zM1377.59 657.98L1420.89 682.98L1420.89 732.98L1377.59 757.98L1334.29 732.98L1334.29 682.98zM1420.89 -17.02L1464.19 7.98L1464.19 57.98L1420.89 82.98L1377.59 57.98L1377.59 7.98zM1420.89 732.98L1464.19 757.98L1464.19 807.98L1420.89 832.98L1377.59 807.98L1377.59 757.98z" stroke="rgba(6, 80, 156, 0.93)" stroke-width="2" data-darkreader-inline-stroke="" style="--darkreader-inline-stroke:rgba(112, 188, 250, 0.93);"></path>
    </g>
    <defs>
        <mask id="SvgjsMask1004">
            <rect width="1440" height="800" fill="#ffffff" data-darkreader-inline-fill="" style="--darkreader-inline-fill:#181a1b;"></rect>
        </mask>
    </defs>
</svg>